# xmcd
#
# Track frame offsets: 
#        150
#        156325
#        173331
#        189784
#        213512
#        231205
#        243422
#
# Disc length: 3465 seconds
#
# Revision: 0
# Processed by: cddbd v1.5.2PL0 Copyright (c) Steve Scherf et al.
# Submitted via: ExactAudioCopyFreeDBPlugin 1.0
#
DISCID=500d8707
DTITLE=William Lee Golden - The Artist
DYEAR=2010
DGENRE=Country
TTITLE0=A conversation of music and art between Kix Brooks and William
TTITLE0=Lee Golden
TTITLE1=The Singing Painter
TTITLE2=Paint Me A Birmingham
TTITLE3=Vincent (Starry, Starry Night)
TTITLE4=I Go Back
TTITLE5=Mona Lisa
TTITLE6=When I Paint My Masterpiece
EXTD=
EXTT0=
EXTT1=
EXTT2=
EXTT3=
EXTT4=
EXTT5=
EXTT6=
PLAYORDER=
